<svg xmlns="http://www.w3.org/2000/svg" viewBox="0 0 85.96 29.67">
<defs>
<style>.color{fill:#462a18;}</style>
</defs>
<title>logo-text</title>
<g id="Layer_2" data-name="Layer 2"><g id="Layer_3" data-name="Layer 3"><path class="color" d="M11.52,5.56c0,1.7-.88,2.81-3.18,2.81H4.4v2.82h-3V8.37H.17V5.55H1.39V0h7c2.14,0,3.13.85,3.13,2.82Zm-3-2.22c0-.44-.11-.52-.6-.52H4.4V5.55H7.83c.54,0,.65-.08.65-.51Z"/><path class="color" d="M23.36,11.19h-3V8.37h-4v2.82h-3V8.37H12V5.53h1.21V2.88c0-2,1.18-2.88,3.09-2.88h3.89c1.94,0,3.13.74,3.13,2.9Zm-3-5.66V3.33c0-.45-.09-.51-.45-.51H16.78c-.37,0-.5.11-.5.54V5.53Z"/><path class="color" d="M35.6,11.19h-3V8.83c0-.38-.11-.48-.57-.48H28.42v2.84h-3V8.35H24.19V5.53H25.4V0h6.5c2.16,0,3,.82,3,2.88V5.24a1.39,1.39,0,0,1-.54,1.32A1.66,1.66,0,0,1,35.6,8.34ZM31.9,3.41c0-.48-.15-.59-.56-.59H28.42V5.53h2.91c.45,0,.57-.12.57-.63Z"/><path class="color" d="M47.44,11.19h-3V8.37h-4v2.82h-3V8.37H36.12V5.53h1.21V2.88c0-2,1.18-2.88,3.09-2.88h3.89c1.94,0,3.13.74,3.13,2.9Zm-3-5.66V3.33c0-.45-.09-.51-.45-.51H40.86c-.37,0-.5.11-.5.54V5.53Z"/><path class="color" d="M58.94,8.31c0,1.94-1,2.88-3,2.88H48.83V0h7C58,0,58.94.89,58.94,2.9Zm-3-5c0-.42-.11-.54-.54-.54H51.85V8.37h3.54c.43,0,.53-.08.53-.54Z"/><path class="color" d="M63.36,11.19h-3V0h3Z"/><path class="color" d="M73.84,8.45c0,1.74-1.07,2.74-3.09,2.74H64.6V8.37h5.75c.37,0,.47-.09.47-.36V7.49c0-.22-.1-.31-.46-.31H67.6c-1.71,0-3-.52-3-2.51V2.73C64.6.88,65.83,0,67.7,0H73V2.82H68c-.3,0-.42.11-.42.37V4c0,.25.12.36.46.36h2.81c1.88,0,3,.72,3,2.74Z"/><path class="color" d="M84.44,11.19H78.58a2.61,2.61,0,0,1-2.94-2.88V7.18H74.43V4.36h1.21V2.94A2.64,2.64,0,0,1,78.58,0h5.86V2.82H79c-.24,0-.33.09-.33.34v1.2H83V7.18H78.67V8c0,.22.09.36.34.36h5.43Z"/><path class="color" d="M14.24,24.91c0,2.06-1,3.35-3.45,3.35H1.5v-5H0V19.74H1.5V14.29H9.66c2.5,0,3.77.77,3.77,3.47v1.88a1.4,1.4,0,0,1-.5,1.33,1.65,1.65,0,0,1,1.31,1.79Zm-4.58-6.4c0-.52-.14-.7-.64-.7H5.27v1.93H9c.52,0,.64-.19.64-.62Zm.79,5.06c0-.22-.12-.31-.46-.31H5.27v1.48H10.1c.23,0,.35-.12.35-.38Z"/><path class="color" d="M28.11,28.26H19.18c-2.25,0-3.67-1-3.67-3.56V14.29h3.77v9.82c0,.46.17.63.6.63h4.46V14.29h3.77Z"/><path class="color" d="M43.58,28.26H39.79V25.32c0-.48-.14-.6-.71-.6H34.61v3.54H30.84V24.72h-1.5V21.2h1.5V14.29H39c2.69,0,3.77,1,3.77,3.6v2.94a1.77,1.77,0,0,1-.67,1.66,2.06,2.06,0,0,1,1.52,2.21ZM39,18.54c0-.59-.19-.73-.69-.73H34.61V21.2h3.64c.56,0,.71-.15.71-.79Z"/><path class="color" d="M57.35,29.67H53.58V28.26H48.44c-2.4,0-3.71-1.23-3.71-3.54V17.78c0-2.35,1.46-3.49,3.83-3.49h8v3.52H48.91c-.27,0-.41.18-.41.5v6c0,.31.14.48.41.48h4.67v-1H51V20.53h6.37Z"/><path class="color" d="M70.88,28.26H63.57c-2.41,0-3.68-1.29-3.68-3.6v-1.4h-1.5V19.74h1.5V18c0-2.56,1.48-3.68,3.68-3.68h7.31v3.52h-6.8c-.28,0-.4.12-.4.43v1.5H69v3.52H63.68v1c0,.27.12.44.42.44h6.78Z"/><path class="color" d="M86,28.26H82.17V25.32c0-.48-.13-.6-.71-.6H77v3.54H73.22V24.72h-1.5V21.2h1.5V14.29h8.12c2.7,0,3.77,1,3.77,3.6v2.94a1.77,1.77,0,0,1-.67,1.66A2.05,2.05,0,0,1,86,24.7Zm-4.62-9.72c0-.59-.19-.73-.69-.73H77V21.2h3.63c.56,0,.71-.15.71-.79Z"/></g></g></svg>