<svg xmlns="http://www.w3.org/2000/svg" viewBox="0 0 91.17 105.45"><defs><style>.cls-1{fill:#fff;}</style></defs><title>paradise-burger-silhouette-white</title><g id="Layer_2" data-name="Layer 2"><g id="Layer_3" data-name="Layer 3"><path class="cls-1" d="M3.55,73.15H87.62l.37-1A45.58,45.58,0,0,0,59,11.92l-.2.29a7.45,7.45,0,0,1-.74.85l.06.23a3.06,3.06,0,0,1,.74.11l.13,0a12.56,12.56,0,0,1,1.46.46l.48.18.6.22,3.94,1.53-3.31.44A42.57,42.57,0,0,1,85.56,70.15H64.38a6.53,6.53,0,0,0,1-1.75c.27-.79.74-.68,1.25-.36s.83.61,1.32,1a11.91,11.91,0,0,0-.78-6.36c-.09-.24-.35-.5,0-.82a2.19,2.19,0,0,0-.79-3.59c-.35-.16-.43-.29-.22-.66a3.37,3.37,0,0,0,.5-2c0-.6.19-.58.66-.47,1,.24,1.93.41,3,.64-.71-1.11-1.38-2-1.92-3-1-1.74-2.38-3.18-2.72-5.32A14.38,14.38,0,0,0,58.5,37.21a27.25,27.25,0,0,0-10.92-3.92,7.63,7.63,0,0,0,0-.83c0-.19-.19-.39-.16-.54.45-1.87.79-3.78,1.42-5.59a26.75,26.75,0,0,1,3.33-6.6,1.22,1.22,0,0,1,1.26-.64l-.64.32,0,.16.72.13L53,20l.59.54h-.12l.73,2.29c.88-.82,1.25-1.74,1-2,.14-.18.31-.31.36-.48.12-.47.31-1-.19-1.24l.46-.52.85.95.68-.08-.71.42.65.21c-.08.16-.25.35-.21.44a2.44,2.44,0,0,0,.45.53.64.64,0,0,0,.13,1c.09.52.15.91.23,1.42A5.34,5.34,0,0,0,59,20.54a2.67,2.67,0,0,0-.26-.95c.18-.22.42-.07.67.18.6.61,1.22,1.22,1.93,1.92a5.72,5.72,0,0,0-.23-1.31,22.9,22.9,0,0,0-1.24-2.54c-.16-.29-.39-.74-.79-.48-.27-.87-1.12-.93-1.73-1.47l4.16-.54c-.34-.13-.59-.24-.86-.33-.61-.21-1.22-.46-1.85-.61-.42-.1-1-.32-1.22.31h-.06c0-.13-.07-.27-.13-.48-.69.37-1.65.09-2,1.27L55.37,15l-.42.21-.13-.11,1.37-1.9a4.42,4.42,0,0,0,1.88-1.59,3.59,3.59,0,0,0-2.71.22c-.37.3-1.16.31-.87,1.23l-.41-.34L53.17,14l-1.32-1.91-.17.35-.19-.61-.15.24-.45-.61-.07.41c-.42-.8-1.11-.56-1.74-.59A10.81,10.81,0,0,1,52,14.77l-.52.15c0-1-1-1-1.5-1.56l-.28.47a1.26,1.26,0,0,0-1.76-.72l-.67-.56h.41l.06-.17-.83-.29.69-.2c-.21-.43-.22-1-1-.89l.4-.38a19.15,19.15,0,0,0-4.88-2.28,12.91,12.91,0,0,1,4-.77c1.38,0,2.76.06,4.16.09-.52-.35-1-.75-1.59-1.07a7,7,0,0,0-1.15-.39c0-.66-.76-.17-1.11-.45s-.94-.08-1.25.43V5.55c-.48,0-1-.21-1.23.44-.2-.66-.64-.28-.87-.17s-.49.5-.81.85l.08-.53L42.25,6l-.9.75-.49,0c.11-.32.22-.67.31-1s.49-.32.55-.53c.13-.44.5-.6.77-.87s.7-.61,1-1c.67-.76,1.31-1.55,2-2.44C42.91,1,39.92,2.76,39,4.78l.46.17,0,.1L39,5.1c-.22-.5-.09-1.12-.47-1.45-.3-.57-.58-1.09-.86-1.64l-.43.47c0-1-.16-1.26-.69-1.16A1.86,1.86,0,0,0,35,.24.44.44,0,0,1,34.49,0h-2c.47.54.75,1.29,1.53,1.59-.09.49.31.86,1,.84a.92.92,0,0,0,.56,1.12,5.27,5.27,0,0,0,.52,1c.21.26.25.37,0,.51s-.35.13-.68.26l.39-.54C33.83,3.63,30,4,28,5.54A14.38,14.38,0,0,0,33.48,6.7c.14.35.63.49,1.25.22,0,.15-.06.36-.1.36a8.66,8.66,0,0,1-1.25.09c-.31,0-.62-.06-1.07-.11l.32.39-1.5-.11,0,.18.38.41-1-.24,0,.15.43.27-1.15.08v.14l.53.19a4.67,4.67,0,0,0-.77.18,2.42,2.42,0,0,0-.55.4c-.08.08,0,.2-.19.32a3.71,3.71,0,0,0-.68,1l.1.11A13.76,13.76,0,0,1,34.8,9.26l-.56.6c-.66-.06-1,.55-1.32,1a13.69,13.69,0,0,0-.9,1.49l.56.43c-.56,0-.89.11-.93.64s-.4.82,0,1.1a2.43,2.43,0,0,0-.26.65,13.7,13.7,0,0,0,.15,2.13,18.36,18.36,0,0,0,.63,2.16c.56-1.55,1.11-3,1.64-4.49,0-.13,0-.3,0-.45.56-.23.59-.32.27-.83.73-.07,1.58-1.21,1.32-1.78.64,0,1.53-.85,1.48-1.35l.84-.18c-.32.32-.34.65,0,1.13.39.65.83,0,1.26.16l-.64.47.48.61.58-.14c.19.25-.72.81.11.73.23.31.41.54.58.79a1.64,1.64,0,0,1,.14.3c.36.87.75,1.74,1.07,2.63.47,1.32.93,2.64,1.33,4A22.27,22.27,0,0,1,43,23.32c.28,1.4.55,2.81.79,4.22a6.69,6.69,0,0,1,0,1.1l-.51-.44c.12.65.22,1.22.33,1.82l-.24,0c.16.82.33,1.66.5,2.52l-1.51-.86c.14.6.25,1.09.36,1.58l-.23,0-.94-.45-.06.1.39.41A27.58,27.58,0,0,0,31.48,37a14.83,14.83,0,0,0-7.61,10.57,7.58,7.58,0,0,1-1.19,2.9c-1.13,1.73-2.22,3.48-3.42,5.37,1.24-.27,2.3-.51,3.36-.72.24-.05.66-.3.61.29a4.49,4.49,0,0,0,.66,2.55,5.88,5.88,0,0,0-1.27.73,2,2,0,0,0-.43,2.79,1.29,1.29,0,0,1,.14,1.46,12.89,12.89,0,0,0-.77,6.15l.85-.63c1.26-1,1.3-1,2,.46a7.17,7.17,0,0,0,.81,1.26H5.61a42.56,42.56,0,0,1,24.7-54.41c0-.13,0-.26,0-.38v-.17a1.69,1.69,0,0,1,.14-.65,1.92,1.92,0,0,1,.11-1,1.54,1.54,0,0,0,.05-.17,1.89,1.89,0,0,1,.17-.64l-.11-.08.13-.23A45.57,45.57,0,0,0,3.18,72.2Zm23.11-5.63c2.65-.16,5.3-.18,8-.21,8.41-.1,16.82-.11,25.24.08,1.19,0,2.39.11,3.63.17a1.76,1.76,0,0,1-.45,1A2.52,2.52,0,0,1,60.54,70q-15.65-.06-31.3,0a2.67,2.67,0,0,1-2.67-1.47h0c-.09-.13-.17-.27-.27-.4C26,67.62,26.19,67.55,26.66,67.52ZM42.92,17.35a.69.69,0,0,1,0-.65,5.29,5.29,0,0,0,.29-1.6l-.72-.18.91-.29-.54-.26c.5-.25.49-1.83,0-2.1-.26-.13-.54-.23-.94-.4h1.15c-.21-.38-.3-.76-.55-.95a4.31,4.31,0,0,0-1-.37c.56.06,1.1-.54,1.66,0a5,5,0,0,0,.42.37l.69.5-.18.26a1.63,1.63,0,0,0,.42.11c.26,0,.52,0,.77,0l0,.08-.84.32c.1.72.81.19,1.07.57l-.72.21c.12.61.29,1.11,1.07,1l-.52.21c0,.81.19,1.19.75,1.33-.75.63,0,1.22,0,1.82l.14.05a13,13,0,0,0,.9-1.68c.21-.52.3-1.09.58-1.75l3,1.94-.07.16a3.86,3.86,0,0,0-3.25.87c-.07.05,0,.26,0,.29a2.47,2.47,0,0,0-.74.41,6.22,6.22,0,0,0-1.55,4c.52-.56.95-1.08,1.45-1.54s1.09-.77,1.52-1.25,1.25-.29,1.49-.89a5.4,5.4,0,0,0,1.27-.41c.39-.24.54-.06.76.18a5.84,5.84,0,0,0,.55.49A30.82,30.82,0,0,0,46,32.46c-.1-1.07-.17-2-.27-3s-.17-2.08-.37-3.11c-.3-1.65-.63-3.3-1.07-4.92C44,20,43.39,18.71,42.92,17.35ZM25.83,47.82a4.06,4.06,0,0,1,.4-1.31h0a10.73,10.73,0,0,1,2.52-4.66,6.83,6.83,0,0,1,1.43-1.41A18.64,18.64,0,0,1,39,35.92c6.66-1.48,13-.67,18.74,3.18a8.43,8.43,0,0,1,1.64,1.34h0a12.2,12.2,0,0,1,3.94,5.9h0c.87,2.35.87,2.35-1.54,2.35q-17.64,0-35.28,0C25.81,48.7,25.61,48.51,25.83,47.82Zm-2.07,5c.37-.77.56-1.6,1.33-2,.79,0,1.58,0,2.38,0q18.18,0,36.37,0c.36,0,.85-.24,1.06.33s.69,1,1.17,1.74c-1.15-.24-2.1-.41-3-.64a1.33,1.33,0,0,0-1.14.21c-1.09.73-2.2,1.42-3.3,2.12a1.2,1.2,0,0,1-1.83.16c-1.14-.83-2.36-1.53-3.55-2.29a1.58,1.58,0,0,0-1.59-.19c-1.49.5-3,.9-4.52,1.35h0a5.06,5.06,0,0,1-4.32.15,40.84,40.84,0,0,0-4.2-1.31c-1.13-.64-2.08-.16-3,.49h0l-3.16,2c-.26.16-.47.29-.8.07-1.34-.93-2.71-1.82-4.07-2.72-.68-.36-1.32.08-2,.11Zm21.57,5H34.08c-.34,0-.79.14-.9-.35s.29-.57.58-.7c1.24-.56,2.25-1.52,3.49-2.08.89-.4,1.67.07,2.45.29a21.92,21.92,0,0,0,2.29.58c.61.1,1.16.5,1.8.66a4.17,4.17,0,0,0,3.78-.57c.36-.27.8-.13,1.2-.2,1-.18,1.89-.65,2.9-.81a2.52,2.52,0,0,1,1.78.38c1.14.68,2.27,1.4,3.39,2.13.19.13.62.19.49.54s-.44.12-.67.12ZM51,60.36c0,.41-.55.44-.94.44H39.78c-.46,0-1.12,0-1.13-.5s.66-.47,1.09-.47H50.09C50.45,59.91,51,59.92,51,60.36ZM35.1,59.84c.46,0,1.22,0,1.22.49s-.75.47-1.23.47c-1.64,0-3.28,0-4.91,0H25.1c-.43,0-1.09,0-1.1-.44s.67-.52,1.11-.52Q30.11,59.81,35.1,59.84Zm-9.7-4.73a1.42,1.42,0,0,1,1.77-.42,27,27,0,0,1,3.25,2c.07.05.12.12.18.16.36.26,1.07.33.91.84s-.78.11-1.2.14-.71,0-1.06,0h-1.8a2.32,2.32,0,0,1-2-1.27A1.25,1.25,0,0,1,25.4,55.11Zm29.18,4.73c1.64,0,3.28,0,4.92,0h4.93c.46,0,1.16,0,1.16.47s-.72.51-1.19.51H54.55c-.48,0-1.25.05-1.24-.46S54.08,59.84,54.58,59.84ZM59.05,57c1.38-.69,2.47-1.86,4-2.36a1.27,1.27,0,0,1,1.28.28A.9.9,0,0,1,64.56,56a2.2,2.2,0,0,1-2.26,1.83H59.35c-.23,0-.45,0-.54-.29A.44.44,0,0,1,59.05,57ZM24.27,65.72c-.46,0-.69.06-.53-.56.45-1.7.42-1.71,2.16-1.71q19.22,0,38.42,0c.87,0,1.23.27,1.36,1.07.06.4.19.78.31,1.25-1-.07-1.91-.15-2.83-.19-11.68-.5-23.36-.35-35-.11C26.83,65.46,25.55,65.61,24.27,65.72Z"/><path class="cls-1" d="M25.09,51l0,0,.09,0Z"/><path class="cls-1" d="M25.44,52.34l.07,0h-.07Z"/><path class="cls-1" d="M55.17,42,56,42a.7.7,0,0,0,.69-.83.67.67,0,0,0-.75-.68c-.46,0-.92,0-1.38.07a.7.7,0,0,0-.64.64.7.7,0,0,0,.25.73C54.45,42.12,54.79,42,55.17,42Z"/><path class="cls-1" d="M36.33,42.56a4,4,0,0,0,1.44-1.08.64.64,0,0,0,.11-1,.72.72,0,0,0-1.08-.13,14.26,14.26,0,0,0-1.1,1,.6.6,0,0,0-.11.75A.88.88,0,0,0,36.33,42.56Z"/><path class="cls-1" d="M45.47,40.72a.67.67,0,0,0,.84.33c.36-.1.53-.37.5-.89a7,7,0,0,0-.57-1.37.68.68,0,0,0-.94-.4.71.71,0,0,0-.44,1A10.66,10.66,0,0,0,45.47,40.72Z"/><path class="cls-1" d="M41.58,47.21c.9.36,1.22.11,1.29-.87-.38-.53-1-.61-1.54-.85a.78.78,0,0,0-1.16.36C40,46.92,40.94,47,41.58,47.21Z"/><path class="cls-1" d="M55.54,45.36c-.21.28-.06.51.24.61s1.4-1.18,1.35-1.45-.33-.47-.6-.23A7.18,7.18,0,0,0,55.54,45.36Z"/><path class="cls-1" d="M42.66,43c.27.25.51.07.58-.26A3.45,3.45,0,0,0,42,41.29c-.22.09-.47.28-.29.58A5.33,5.33,0,0,0,42.66,43Z"/><path class="cls-1" d="M37.09,43.79a.32.32,0,0,0-.39.21c-.19.35-.35.72-.52,1.09a.38.38,0,0,0,.18.48.28.28,0,0,0,.43,0c.23-.42.44-.86.61-1.2C37.4,44,37.29,43.86,37.09,43.79Z"/><path class="cls-1" d="M48.9,37c-.41-.35-.75-.17-.79.41.53.26,1,.72,1.61.67C50.27,37.14,49.24,37.3,48.9,37Z"/><path class="cls-1" d="M33.45,43.64c.19,0,.35-.12.34-.29a2.3,2.3,0,0,0-.7-1.41c-.13-.15-.36-.06-.49.12s0,.47.13.66S33,43.52,33.45,43.64Z"/><path class="cls-1" d="M51.31,43.12c.25,0,.4-.17.39-.49a2.55,2.55,0,0,0-1.08-1c-.24-.11-.39.12-.42.36S51.07,43.14,51.31,43.12Z"/><path class="cls-1" d="M46.68,44.89c-.21.4-.62.72-.53,1.24a.5.5,0,0,0,.63.09l.54-.91a.35.35,0,0,0-.14-.55A.33.33,0,0,0,46.68,44.89Z"/><path class="cls-1" d="M39.26,39a3.85,3.85,0,0,0,1.09-.83c-.17-.43-.41-.6-.84-.27a7.23,7.23,0,0,1-.76.45c-.16.22-.54.38-.26.74S39,39.11,39.26,39Z"/><path class="cls-1" d="M6.89,87V84.15h3.94c2.3,0,3.18-1.1,3.18-2.8V78.61c0-2-1-2.82-3.13-2.82h-7v5.54H2.66v2.82H3.88V87Zm0-8.37h3.48c.49,0,.6.07.6.52v1.7c0,.43-.11.5-.65.5H6.89Z"/><path class="cls-1" d="M25.84,87v-8.3c0-2.15-1.18-2.89-3.12-2.89H18.83c-1.91,0-3.09.89-3.09,2.88v2.65H14.53v2.83h1.21V87h3V84.15h4V87Zm-7.07-5.66V79.15c0-.44.12-.54.49-.54h3.1c.36,0,.45.06.45.51v2.2Z"/><path class="cls-1" d="M35.05,84.62V87h3V84.12a1.65,1.65,0,0,0-1.22-1.77A1.4,1.4,0,0,0,37.41,81V78.67c0-2.07-.86-2.88-3-2.88H27.88v5.53h-1.2v2.82h1.2V87h3V84.14h3.58C34.94,84.14,35.05,84.23,35.05,84.62Zm-.66-3.93c0,.51-.13.63-.57.63H30.9V78.61h2.93c.4,0,.56.1.56.58Z"/><path class="cls-1" d="M49.92,87v-8.3c0-2.15-1.18-2.89-3.12-2.89H42.91c-1.91,0-3.09.89-3.09,2.88v2.65H38.61v2.83h1.21V87h3V84.15h4V87Zm-7.07-5.66V79.15c0-.44.12-.54.49-.54h3.1c.36,0,.45.06.45.51v2.2Z"/><path class="cls-1" d="M61.43,78.68c0-2-.9-2.89-3.07-2.89h-7V87h7c2.08,0,3.06-.94,3.06-2.89Zm-3,4.94c0,.46-.09.53-.52.53H54.34V78.61h3.53c.43,0,.53.12.53.54Z"/><rect class="cls-1" x="62.82" y="75.79" width="3.04" height="11.19"/><path class="cls-1" d="M72.84,84.15H67.09V87h6.15c2,0,3.09-1,3.09-2.75V82.88c0-2-1.07-2.75-3-2.75h-2.8c-.34,0-.46-.11-.46-.35V79c0-.27.12-.37.41-.37h4.92V75.79H70.18c-1.86,0-3.09.88-3.09,2.72v1.95c0,2,1.29,2.51,3,2.51h2.76c.36,0,.46.09.46.31v.52C73.31,84.06,73.21,84.15,72.84,84.15Z"/><path class="cls-1" d="M81.48,78.61h5.44V75.79H81.07a2.65,2.65,0,0,0-2.95,2.94v1.42h-1.2V83h1.2v1.12A2.63,2.63,0,0,0,81.07,87h5.85V84.15H81.5c-.25,0-.34-.13-.34-.35V83h4.28V80.15H81.16V79C81.16,78.7,81.25,78.61,81.48,78.61Z"/><path class="cls-1" d="M15.42,96.76a1.4,1.4,0,0,0,.5-1.33V93.54c0-2.69-1.27-3.46-3.77-3.46H4v5.44H2.49v3.53H4v5h9.29c2.48,0,3.45-1.29,3.45-3.35V98.55A1.65,1.65,0,0,0,15.42,96.76ZM7.76,93.6h3.75c.5,0,.64.17.64.69v.62c0,.42-.12.61-.64.61H7.76Zm5.18,6.54c0,.27-.12.39-.35.39H7.76V99.05h4.71c.35,0,.47.09.47.3Z"/><path class="cls-1" d="M26.83,100.53H22.36c-.42,0-.59-.18-.59-.64V90.08H18v10.41c0,2.52,1.42,3.56,3.67,3.56H30.6v-14H26.83Z"/><path class="cls-1" d="M44.55,98.28a1.77,1.77,0,0,0,.67-1.66V93.68c0-2.58-1.08-3.6-3.77-3.6H33.33V97h-1.5v3.52h1.5v3.54H37.1v-3.54h4.46c.58,0,.72.11.72.59v3h3.79v-3.56A2.05,2.05,0,0,0,44.55,98.28Zm-3.1-2.08c0,.63-.16.79-.71.79H37.1V93.6h3.66c.5,0,.69.13.69.73Z"/><path class="cls-1" d="M53.47,99.51h2.6v1H51.39c-.26,0-.4-.18-.4-.48v-6c0-.33.14-.5.4-.5h7.66V90.08h-8c-2.37,0-3.83,1.13-3.83,3.48v7c0,2.31,1.31,3.54,3.71,3.54h5.14v1.4h3.77V96.31H53.47Z"/><path class="cls-1" d="M62.38,93.75v1.77h-1.5v3.53h1.5v1.4c0,2.31,1.27,3.6,3.67,3.6h7.32v-3.52H66.59c-.31,0-.42-.18-.42-.45v-1h5.35V95.52H66.17V94c0-.3.11-.42.4-.42h6.8V90.08H66.05C63.86,90.08,62.38,91.2,62.38,93.75Z"/><path class="cls-1" d="M86.93,98.28a1.77,1.77,0,0,0,.67-1.66V93.68c0-2.58-1.07-3.6-3.77-3.6H75.71V97h-1.5v3.52h1.5v3.54h3.77v-3.54H84c.57,0,.71.11.71.59v3h3.79v-3.56A2,2,0,0,0,86.93,98.28Zm-3.1-2.08c0,.63-.15.79-.71.79H79.48V93.6h3.66c.5,0,.69.13.69.73Z"/></g></g></svg>